<svg width="113" height="63" viewBox="0 0 113 63" fill="none" xmlns="http://www.w3.org/2000/svg">
<g clip-path="url(#clip0)" filter="url(#filter0_d)">
<path d="M56.5002 54.8371C85.4952 54.8371 109 42.5614 109 27.4186C109 12.2758 85.4952 6.10352e-05 56.5002 6.10352e-05C27.5053 6.10352e-05 4.00024 12.2758 4.00024 27.4186C4.00024 42.5614 27.5053 54.8371 56.5002 54.8371Z" fill="url(#paint0_radial)"/>
<path d="M56.5002 52.8001C84.3626 52.8001 106.949 41.4364 106.949 27.4186C106.949 13.4008 84.3626 2.03711 56.5002 2.03711C28.6379 2.03711 6.05103 13.4008 6.05103 27.4186C6.05103 41.4364 28.6379 52.8001 56.5002 52.8001Z" fill="#6181B6"/>
<path d="M66.7132 35.6483L69.2151 22.8557C69.7894 19.9631 69.2972 17.8038 67.8206 16.4594C66.3851 15.1557 63.9241 14.5038 60.3147 14.5038H55.9671L57.1976 8.14825C57.2386 7.9038 57.1976 7.65936 57.0335 7.45566C56.8694 7.25195 56.6644 7.17047 56.4183 7.17047H50.43C50.0198 7.17047 49.6917 7.45566 49.6097 7.82232L46.9436 21.389C46.6976 19.8408 46.1233 18.5371 45.139 17.4779C43.3753 15.4816 40.6272 14.4631 36.8948 14.4631H25.3694C24.9593 14.4631 24.6312 14.7482 24.5491 15.1149L19.1761 42.6557C19.1351 42.9001 19.1761 43.1446 19.3401 43.3483C19.5042 43.552 19.7093 43.6334 19.9554 43.6334H25.9847C26.3948 43.6334 26.723 43.3483 26.805 42.9816L28.1175 36.3408H32.5882C34.9261 36.3408 36.9358 36.0964 38.4534 35.6075C40.053 35.0779 41.4886 34.2223 42.7601 33.0408C43.7854 32.1038 44.6468 31.0445 45.303 29.9038L44.2366 35.4038C44.1956 35.6483 44.2366 35.8927 44.4007 36.0964C44.5647 36.3001 44.7698 36.3816 45.0159 36.3816H51.0042C51.4144 36.3816 51.7425 36.0964 51.8245 35.7297L54.7776 20.6557H58.8792C60.6429 20.6557 61.1351 20.9816 61.2991 21.1445C61.4222 21.2668 61.6683 21.7557 61.3811 23.2631L59.0022 35.4445C58.9612 35.689 59.0022 35.9334 59.1663 36.1371C59.3304 36.3408 59.5354 36.4223 59.7815 36.4223H65.9339C66.303 36.3001 66.6311 36.0149 66.7132 35.6483ZM38.9866 25.0557C38.6175 26.9705 37.9202 28.3557 36.8948 29.1297C35.8694 29.9038 34.1878 30.3112 31.973 30.3112H29.3069L31.2347 20.452H34.68C37.223 20.452 38.2483 20.9816 38.6585 21.4297C39.1917 22.0816 39.3147 23.3445 38.9866 25.0557Z" fill="#F3F2F0"/>
<path d="M92.3069 17.4779C90.5433 15.4816 87.7952 14.4631 84.0628 14.4631H72.4554C72.0452 14.4631 71.7171 14.7483 71.6351 15.1149L66.262 42.6149C66.221 42.8594 66.262 43.1038 66.4261 43.3075C66.5901 43.5112 66.7952 43.5927 67.0413 43.5927H73.0706C73.4808 43.5927 73.8089 43.3075 73.8909 42.9408L75.2034 36.3001H79.6741C82.012 36.3001 84.0218 36.0557 85.5394 35.5668C87.139 35.0371 88.5745 34.1816 89.846 33.0001C90.9124 32.0223 91.8147 30.9223 92.471 29.7409C93.1272 28.5594 93.6194 27.2557 93.9065 25.8297C94.6038 22.2853 94.0706 19.5149 92.3069 17.4779ZM86.0315 25.0557C85.6624 26.9705 84.9651 28.3557 83.9397 29.1297C82.9144 29.9038 81.2327 30.3112 79.0179 30.3112H76.3519L78.2796 20.452H81.7249C84.2679 20.452 85.2933 20.9816 85.7034 21.4297C86.2776 22.0816 86.4007 23.3446 86.0315 25.0557Z" fill="#F3F2F0"/>
<path d="M34.6799 19.6371C36.9768 19.6371 38.4944 20.0445 39.2737 20.9001C40.053 21.7556 40.217 23.1815 39.8069 25.2186C39.3967 27.3371 38.5764 28.8852 37.387 29.7815C36.1975 30.6778 34.3928 31.126 31.9729 31.126H28.3225L30.5784 19.6371H34.6799ZM19.9963 42.7778H26.0256L27.4612 35.4852H32.6292C34.926 35.4852 36.7717 35.2408 38.2483 34.7519C39.7249 34.263 41.0374 33.4889 42.2678 32.3482C43.2932 31.4112 44.1135 30.3926 44.7288 29.2926C45.344 28.1926 45.7952 26.9704 46.0413 25.626C46.6975 22.3667 46.2053 19.8408 44.6057 18.0075C43.0061 16.1741 40.4631 15.2778 36.9768 15.2778H25.3694L19.9963 42.7778Z" fill="#F3F2F0"/>
<path d="M50.4709 7.98523H56.4592L55.0237 15.2778H60.3557C63.719 15.2778 66.0159 15.8482 67.2874 17.0297C68.5588 18.2112 68.928 20.0852 68.4358 22.6926L65.9338 35.4852H59.8635L62.2424 23.3037C62.5295 21.9186 62.4065 20.9815 61.9553 20.4926C61.5042 20.0037 60.4788 19.7186 58.9612 19.7186H54.1624L51.0862 35.4852H45.0979L50.4709 7.98523Z" fill="#F3F2F0"/>
<path d="M81.7249 19.6371C84.0217 19.6371 85.5393 20.0445 86.3186 20.9001C87.0979 21.7556 87.262 23.1815 86.8518 25.2186C86.4417 27.3371 85.6214 28.8852 84.4319 29.7815C83.2424 30.6778 81.4378 31.126 79.0178 31.126H75.3674L77.6233 19.6371H81.7249ZM67.0413 42.7778H73.0706L74.5061 35.4852H79.6741C81.971 35.4852 83.8167 35.2408 85.2932 34.7519C86.7698 34.263 88.0823 33.4889 89.3128 32.3482C90.3381 31.4112 91.1585 30.3926 91.7737 29.2926C92.3889 28.1926 92.8401 26.9704 93.0862 25.626C93.7424 22.3667 93.2503 19.8408 91.6506 18.0075C90.051 16.1741 87.5081 15.2778 84.0217 15.2778H72.4143L67.0413 42.7778Z" fill="#F3F2F0"/>
</g>
<defs>
<filter id="filter0_d" x="0.000244141" y="6.10352e-05" width="113" height="63" filterUnits="userSpaceOnUse" color-interpolation-filters="sRGB">
<feFlood flood-opacity="0" result="BackgroundImageFix"/>
<feColorMatrix in="SourceAlpha" type="matrix" values="0 0 0 0 0 0 0 0 0 0 0 0 0 0 0 0 0 0 127 0"/>
<feOffset dy="4"/>
<feGaussianBlur stdDeviation="2"/>
<feColorMatrix type="matrix" values="0 0 0 0 0 0 0 0 0 0 0 0 0 0 0 0 0 0 0.25 0"/>
<feBlend mode="normal" in2="BackgroundImageFix" result="effect1_dropShadow"/>
<feBlend mode="normal" in="SourceGraphic" in2="effect1_dropShadow" result="shape"/>
</filter>
<radialGradient id="paint0_radial" cx="0" cy="0" r="1" gradientUnits="userSpaceOnUse" gradientTransform="translate(35.5215 9.64246) scale(68.9453 68.4832)">
<stop stop-color="white"/>
<stop offset="0.5" stop-color="#4C6B97"/>
<stop offset="1" stop-color="#231F20"/>
</radialGradient>
<clipPath id="clip0">
<rect width="105" height="55" fill="white" transform="translate(4.00024)"/>
</clipPath>
</defs>
</svg>
